<?xml version="1.0" encoding="UTF-8"?>
<svg id="Layer_1" xmlns="http://www.w3.org/2000/svg" version="1.1" xmlns:xlink="http://www.w3.org/1999/xlink" viewBox="0 0 160 160">
  <!-- Generator: Adobe Illustrator 30.3.0, SVG Export Plug-In . SVG Version: 2.1.3 Build 182)  -->
  <defs>
    <style>
      .st0 {
        fill: url(#linear-gradient1);
      }

      .st0, .st1, .st2 {
        stroke: #64b68d;
        stroke-miterlimit: 10;
        stroke-width: 2px;
      }

      .st1 {
        fill: url(#linear-gradient);
      }

      .st2 {
        fill: url(#linear-gradient2);
      }
    </style>
    <linearGradient id="linear-gradient" x1="118.94" y1="106.83" x2="168.08" y2="57.69" gradientTransform="translate(0 162) scale(1 -1)" gradientUnits="userSpaceOnUse">
      <stop offset="0" stop-color="#64b68d"/>
      <stop offset=".73" stop-color="#111"/>
    </linearGradient>
    <linearGradient id="linear-gradient1" x1="90.37" y1="111.71" x2="149.57" y2="52.51" xlink:href="#linear-gradient"/>
    <linearGradient id="linear-gradient2" x1="49.26" y1="122.74" x2="130.48" y2="41.52" xlink:href="#linear-gradient"/>
  </defs>
  <path class="st1" d="M151.09,38.18c-6.64,14.72-14.65,28.81-24.57,41.56,9.74,12.88,18,26.79,24.57,41.56l-14.51.65c-7.26-15.27-16.87-29.18-27.57-42.21,11.01-12.64,19.94-26.91,27.31-41.95l14.77.39h0Z"/>
  <path class="st0" d="M128.09,130.97l-15.55.65c-11.16-19.38-25.39-36.89-42.47-51.36,17.42-14.45,31.59-32.32,42.47-52.14.69-.23,13.94-.22,14.64,0,.33.1.82.43.65.91-8.99,19.2-21.51,36.64-36.85,51.23,15.18,14.55,27.99,31.72,37.11,50.71Z"/>
  <path class="st2" d="M17.01,84.05c-2.72-1.25-5.38-2.68-8.1-3.92v-.52c2.57-1.5,5.4-2.45,8.1-3.66,10.3-4.59,20.49-9.32,29.67-15.94,15.73-11.36,29.89-27.28,38.94-44.43l21.3.13c-12.98,25.51-32.42,47.38-55.41,64.3,22.97,16.78,42.63,38.59,55.28,64.17l-20.91.26c-12.69-23.43-32.68-42.85-56.46-54.89-4.01-2.03-8.33-3.61-12.41-5.49h0Z"/>
</svg>