<?xml version="1.0" encoding="iso-8859-1"?>
<!DOCTYPE svg PUBLIC "-//W3C//DTD SVG 1.1//EN" "http://www.w3.org/Graphics/SVG/1.1/DTD/svg11.dtd">
<svg fill="#005f73" height="24" width="24" version="1.1" id="Capa_1" xmlns="http://www.w3.org/2000/svg" xmlns:xlink="http://www.w3.org/1999/xlink"
	 viewBox="0 0 259.745 259.745" xml:space="preserve">
<g>
	<path d="M258.933,149.355c-6.191-7.728-9.472-15.681-2.909-24.592c1.858-2.524-1.2-5.569-3.807-4.952
		c-15.212,3.596-31.698,12.113-39.554,26.25c-0.964,1.732,1.214,3.249,2.642,2.039c10.108-8.556,19.387-15.822,31.493-19.829
		c-3.099,9.53-1.324,21.531,8.403,25.921C258.446,155.657,261.158,152.133,258.933,149.355z"/>
	<path d="M240.124,88.075c0.253-2.019,0.255-4.182-1.016-5.894c-3.188-4.298-9.105-1.514-13.077-0.178
		c-9.467,3.186-19.168,7.825-24.301,16.444c-1.122-7.215-1.117-13.793,1.342-21.187c0.687-2.067-1.179-4.675-3.42-4.49
		c-19.542,1.613-38.869,10.179-51.145,25.662c-12.857-19.076-37.524-32.055-56.845-40.439c-3.23-1.402-7.008,1.568-5.058,5.057
		c4.501,8.053,7.412,16.251,9.069,24.604c-6.321-0.489-14.214,3.892-19.297,6.698c-3.714,2.05-8.115,4.617-10.263,8.331
		c-3.031-5.947-5.125-11.176-3.524-18.594c0.567-2.629-1.581-4.701-4.179-4.179c-11.902,2.394-35.693,11.285-36.025,26.189
		c-0.05,2.272,3.743,2.908,4.072,0.552c0.941-6.71,10.044-11.56,15.289-14.313c4.381-2.299,8.884-3.847,13.591-4.926
		c-0.604,8.098,1.355,17.074,7.845,22.118c0.92,0.715,1.988,0.845,2.906,0.588c1.321,0.829,3.224,0.667,3.507-1.269
		c0.883-6.032,10.913-9.526,15.852-11.393c3.663-1.384,7.8-1.891,11.26-3.63c1.238,10.243,0.609,20.737-1.571,31.532
		c-16.171,4.944-31.233,12.777-44.515,23.442c-3.129-6.273-3.597-12.196,0.625-18.087c1.024-1.427,0.02-3.964-1.732-4.258
		c-11.362-1.905-22.655-1.088-33.357,3.404c-4.618,1.939-17.248,7.084-16.082,13.798c0.113,0.65,0.917,1.256,1.574,1.2
		c0.21-0.019,0.418-0.036,0.628-0.054c1.354-0.116,2.052-1.93,0.728-2.688c1.506,0.861,8.599-4.568,10.088-5.309
		c3.296-1.637,6.752-2.953,10.304-3.905c6.829-1.826,13.733-2.186,20.665-1.371c-3.233,6.862-2.787,15.024,2.605,20.902
		c0.653,0.712,1.423,0.881,2.143,0.754c0.584,0.505,1.395,0.721,2.157,0.221c16.424-10.768,33.928-19.596,53.12-24.198
		c3.567-0.856,9.104-3.243,12.529-1.476c4.623,2.385,0.869,0.477,2.135,5.274c1.731,6.56,1.239,10.307,5.66,16.312
		c0.848,1.152,2.069,1.484,3.213,1.339c1.113,0.858,3.224,0.527,3.765-1.092c2.504-7.487,19.741-11.882,26.233-13.799
		c6.832-2.019,13.789-3.122,20.847-3.612c-1.26,6.171-0.102,12.325,4.658,17.304c2.527,2.645,6.501-0.711,4.908-3.787
		c-2.656-5.128-4.06-9.91-1.53-15.576c1.048-2.345-0.134-5.521-3.111-5.421c-8.993,0.298-17.797,1.59-26.335,4.118
		c0.003-0.038,0.025-0.066,0.027-0.104c0.628-9.743-1.801-18.422-6.143-26.189c12.087-12.281,26.522-20.584,43.896-22.246
		c-1.922,8.004-1.904,16.365,1.357,24.093c0.948,2.248,3.291,2.659,4.844,1.75c1.064,0.401,2.351,0.203,2.978-1.002
		c4.906-9.42,14.097-13.511,23.848-16.439c0.534-0.16,5.101-1.98,5.62-1.551c-0.543-0.449-1.623,4.83-1.657,5.232
		c-0.343,4.06,0.529,7.534,3.348,10.439c2.263,2.332,5.523-0.147,5.047-2.938C239.511,95.657,239.6,92.263,240.124,88.075z"/>
	<path d="M235.76,174.774c-5.101-1.113-11.156,1.925-15.372,4.641c-3.884,2.503-7.05,5.615-9.649,9.305
		c-8.396-5.982-4.948-11.205-6.51-19.202c-0.299-1.528-0.851-3.509-2.136-4.511c-3.891-3.037-11.312-0.033-15.318,1.062
		c-18.39,5.024-34.196,15.658-45.843,30.693c-0.297,0.383-0.415,0.793-0.464,1.2c-0.083-0.33-0.185-0.663-0.408-0.987
		c-5.145-7.48-6.327-14.739-2.968-23.154c0.844-2.115-1.288-4.431-3.349-4.395c-20.385,0.343-40.733,7.243-55.272,21.79
		c-4.106-6.487-4.522-10.852-4.885-19.058c-0.078-1.744,0.252-2.736-0.69-4.37c-0.577-1.001-1.695-1.643-2.851-1.635
		c-17.062,0.117-36.859,15.427-47.418,27.625c-1.663,1.92,0.908,4.548,2.804,2.805c5.94-5.464,12.076-10.426,19.113-14.426
		c6.867-3.903,15.374-5.06,21.974-8.824c-0.057,0.351-0.141,0.698-0.181,1.053c-0.052,2.475-0.173,4.794,0.229,7.255
		c0.975,5.965,3.672,11.274,8.324,15.131c1.627,1.349,4.097,0.616,4.987-0.909C94.79,184.86,110.448,177.686,128.9,176.6
		c-2.15,8.684-0.18,17.279,5.85,24.472c1.973,2.353,5.568,0.297,5.771-2.242c0.391,1.512,2.153,2.571,3.555,1.076
		c6.32-6.74,13.207-12.698,21.139-17.508c6.799-4.124,19.003-11.443,27.281-10.769c6.585,0.535,3.366,6.165,5.445,11.904
		c1.918,5.298,5.339,8.654,9.96,11.589c1.139,0.723,2.213,0.631,3.094,0.158c0.815,0.033,1.662-0.26,2.272-1.1
		c2.869-3.947,6.598-7.377,10.833-9.807c3.891-2.232,8.528-2.618,12.285-4.82C238.245,178.462,238.004,175.263,235.76,174.774z"/>
</g>
</svg>