<?xml version="1.0" encoding="UTF-8"?> <svg xmlns="http://www.w3.org/2000/svg" width="124" height="56" viewBox="0 0 124 56" fill="none"><mask id="mask0_445_3972" style="mask-type:luminance" maskUnits="userSpaceOnUse" x="0" y="0" width="124" height="56"><path d="M123.5 0H0.494141V55.0505H123.5V0Z" fill="white"></path></mask><g mask="url(#mask0_445_3972)"><path d="M20.3335 36.2593C20.2276 38.5355 20.1429 40.8116 19.8994 43.0665C19.7936 44.0511 19.3701 45.0039 19.0208 45.9567C18.6926 46.846 18.2903 47.7035 17.8986 48.5716C17.5598 49.3127 17.0093 49.715 16.1518 49.7679C13.9921 49.9161 12.0971 49.3656 10.7526 47.6188C9.77862 46.359 9.38692 44.9192 9.70452 43.2465C10.3185 40.0599 12.457 38.0273 14.8284 36.2064C16.1412 35.2007 17.6974 34.502 19.1372 33.6762C19.4654 33.4962 19.8042 33.348 20.3229 33.0833C20.3229 34.2902 20.3653 35.2854 20.3229 36.2699M18.0997 9.83508C18.0362 10.6079 17.9727 11.3701 17.9197 12.143C17.7821 14.2391 17.2104 16.2188 16.3212 18.1138C16.1624 18.4526 15.9824 18.7384 15.6436 18.5691C15.4213 18.4632 15.2202 18.1138 15.1672 17.8492C14.892 16.3776 15.0931 14.9273 15.6648 13.5722C16.1941 12.3335 16.914 11.1796 17.5704 10.0045C17.6339 9.8986 17.7609 9.83508 17.8668 9.75039C17.9515 9.78215 18.0256 9.80332 18.0997 9.83508ZM117.582 25.5457C117.836 25.5351 118.122 25.4927 118.334 25.3657C121.214 23.6401 122.558 20.8452 123.479 17.7856C123.521 17.648 123.225 17.4045 123.003 17.0763C121.923 18.7914 120.928 20.337 118.662 20.7817C118.398 19.4689 118.133 18.2303 117.9 16.9811C117.731 16.0706 117.656 15.139 117.487 14.218C117.392 13.7098 117.265 13.191 117.021 12.7358C116.693 12.1112 116.28 11.5501 115.402 11.6454C114.936 11.6983 114.459 11.6136 113.993 11.6666C112.744 11.7936 111.516 12.1324 110.817 13.2228C109.219 15.7213 107.144 18.008 106.89 21.1734C106.149 22.4967 106.922 23.7989 106.975 25.1116C106.975 25.3551 107.26 25.5774 107.419 25.8103C107.451 25.7362 107.483 25.6515 107.514 25.5774C107.991 25.6409 108.563 25.5668 108.922 25.7997C110.521 26.8584 111.368 28.4676 111.791 30.2779C112.046 31.3683 111.813 32.4587 111.495 33.5492C111.188 34.6184 110.934 35.6665 110.32 36.6087C109.854 37.318 109.304 37.6779 108.425 37.5297C108.16 37.4874 107.874 37.5933 107.557 37.6356C107.673 38.1438 107.652 38.5355 107.832 38.8107C108.457 39.7635 108.033 40.5152 107.472 41.2668C107.345 41.4256 107.218 41.595 107.112 41.7644C105.598 44.0088 103.915 46.0837 101.438 47.3541C101.205 47.4706 100.983 47.5976 100.548 47.8411C100.39 46.6978 100.189 45.7556 100.136 44.8133C100.04 43.2677 100.136 41.7009 99.945 40.1658C99.7651 38.6731 99.511 37.2439 100.421 35.8888C100.506 35.7512 100.358 35.3065 100.189 35.1901C99.7015 34.8301 99.151 34.5655 98.6217 34.2585C96.4726 33.041 94.3129 31.8447 92.185 30.5955C91.1369 29.9815 90.1312 29.2827 89.1149 28.6264C89.1467 28.5734 89.1784 28.5099 89.2102 28.457V27.4195C88.9032 27.483 88.5961 27.4513 88.4162 27.5889C87.6857 28.1606 86.8599 27.9806 86.1506 27.7689C84.7214 27.3348 83.3663 26.689 81.9583 26.1914C80.3809 25.6409 78.7823 25.154 77.1838 24.6564C75.9451 24.2753 74.6959 23.9259 73.4467 23.566C72.3139 23.2378 71.1811 22.8249 70.0272 22.6132C69.2332 22.4649 68.6721 22.1791 68.4498 21.3957C68.2486 21.3957 68.0475 21.3322 67.9734 21.3957C67.3805 22.0097 66.6289 21.8509 65.9196 21.8086C63.4317 21.6709 60.9544 21.4698 58.4772 21.3428C57.7996 21.311 57.3232 21.0357 56.8786 20.5911C56.6774 20.4006 56.4339 20.2629 56.2116 20.0935C56.2116 20.1782 56.2116 20.2735 56.2116 20.3582C55.8093 20.6758 55.4282 21.2263 55.0047 21.2687C52.4745 21.5121 49.9337 21.618 47.3929 21.8086C45.9743 21.9144 44.5557 22.0732 43.1371 22.2426C42.2161 22.3485 41.2633 22.412 40.3846 22.6979C39.2095 23.079 38.1402 23.3225 37.1768 22.1897C36.9439 22.4544 36.6581 22.6343 36.5946 22.8884C36.3723 23.693 35.663 23.9047 35.0489 24.1482C33.0057 24.9422 30.9201 25.6303 28.8769 26.4243C27.543 26.9431 26.2514 27.5677 24.8646 28.1711C24.2294 27.4936 23.5095 26.8478 22.9378 26.0962C22.3767 25.3657 21.858 24.614 20.8311 24.6034C19.9312 24.6034 18.9255 24.4446 18.1421 24.7622C16.5117 25.4186 15.0084 26.3502 13.4416 27.1654C13.2193 27.2819 12.9758 27.4089 12.7323 27.4513C12.1077 27.5783 11.5678 27.3771 11.1866 26.869C10.6573 26.1491 10.4879 25.3339 10.8373 24.487C11.0173 24.0318 11.2713 23.6189 11.5466 23.1001C11.1337 22.8461 10.7526 22.6026 10.2127 22.2744C10.5938 15.7213 12.8699 9.88802 17.2951 4.8276C18.2373 6.18269 17.9515 7.42133 16.9987 8.42706C14.8073 10.7244 13.0817 13.2334 12.5206 16.4835C12.2665 17.9233 12.457 19.2043 13.1346 20.3264C14.1086 21.9568 15.5907 22.5073 17.1152 20.8875C18.9572 18.929 19.783 16.5047 19.9947 13.8792C20.1324 12.2277 20.1218 10.555 20.0371 8.89287C19.9736 7.78127 20.397 6.98728 21.2863 6.47912C23.0225 5.47339 24.7693 4.46766 26.6008 3.63131C28.0406 2.97494 29.5756 2.54089 31.0895 2.04332C31.693 1.84217 32.3176 1.67278 32.9422 1.61985C34.7737 1.45046 36.6158 1.3446 38.4578 1.20697C38.6378 1.19638 38.8178 1.10111 39.0083 1.04817C39.0295 0.963479 39.0507 0.878786 39.0718 0.794093C38.7013 0.656466 38.3414 0.42356 37.9603 0.412974C36.2558 0.349454 34.5619 0.349454 32.8575 0.338867C32.5399 0.338867 32.2011 0.349454 31.9047 0.434147C30.6237 0.783506 29.3427 1.13287 28.0829 1.53516C27.1301 1.84217 26.1456 2.1386 25.2563 2.60441C23.5307 3.50427 21.858 4.52059 20.1006 5.51573C19.6983 4.90171 19.2748 4.22416 18.8302 3.56779C18.3538 2.86907 17.5492 2.5303 16.7764 2.79497C16.0247 3.05963 15.1778 3.31371 14.6167 3.83246C13.1452 5.18755 11.6207 6.54264 10.4668 8.15181C8.73055 10.5761 7.1849 13.1381 5.76629 15.7636C3.88187 19.2254 2.25152 22.7402 0.494141 26.2867C0.938779 26.6043 1.27755 26.9431 1.67984 27.1337C2.42091 27.4618 2.81261 28.0335 2.92907 28.7746C3.22549 30.7331 4.01949 32.4799 5.10992 34.0997C5.33223 34.4278 5.86157 34.756 6.2321 34.7349C6.80378 34.7137 7.37546 34.4067 7.92596 34.1844C9.90566 33.4115 11.3878 31.8976 13.0711 30.6908C14.1827 29.8862 15.1566 28.9228 16.427 28.3088C17.7398 27.6842 17.7821 27.9912 18.5655 28.7852C19.91 30.1508 19.7618 30.7649 18.0785 31.6436C18.0044 31.6859 17.9621 31.7706 17.888 31.8235C16.4906 32.7446 15.0719 33.6444 13.6957 34.5972C11.4831 36.1323 9.58806 38.0485 7.68247 39.9435C6.27445 41.3409 5.10992 42.8125 4.36885 44.7075C3.6172 46.6342 4.87701 49.4715 6.36973 50.2866C7.19548 50.7313 8.10593 51.0383 8.99521 51.3453C9.97977 51.6735 10.9855 52.1181 11.9912 52.1816C13.4839 52.2663 14.9767 52.2981 16.5117 51.9276C19.1266 51.2924 21.011 49.8208 22.4614 47.6611C23.4248 46.2108 24.06 44.6228 24.5258 42.9395C25.0551 41.0022 25.5951 39.086 25.6586 37.0639C25.6586 36.8945 25.7115 36.7146 25.7539 36.5452C26.0926 35.2113 26.0185 33.8879 25.7644 32.5434C25.5951 31.6436 25.648 30.7013 25.5951 29.6215C27.3207 29.0181 28.9299 28.4358 30.5602 27.8959C31.7353 27.5042 32.9316 27.1548 34.1279 26.8372C35.3242 26.509 36.5311 26.2126 37.7485 25.9374C38.5955 25.7468 39.4636 25.6092 40.3211 25.4715C41.9832 25.2069 43.6453 24.9528 45.3074 24.6987C45.4556 24.6776 45.5932 24.6564 45.7414 24.6352C47.4459 24.3917 49.1397 24.0529 50.8548 23.9471C53.078 23.8094 55.3118 23.7883 57.5455 23.8624C59.557 23.9365 61.5579 23.7777 63.5799 24.2435C65.295 24.6352 67.1264 24.5611 68.8944 24.7411C69.9637 24.8469 71.0329 24.974 72.0704 25.2175C73.9231 25.6621 75.7546 26.202 77.586 26.7102C78.1154 26.8584 78.6447 27.0066 79.174 27.176C80.275 27.5148 81.3972 27.8006 82.4665 28.2135C83.5887 28.637 84.6685 29.1769 85.7695 29.6744C86.5212 30.0132 87.294 30.3308 88.0245 30.7119C89.2525 31.3577 90.3959 32.1941 91.6663 32.7022C93.1272 33.2951 94.4823 34.0361 95.7315 34.9572C96.1338 35.2536 96.5679 35.6771 96.7055 36.1217C96.9808 37.0639 97.1396 38.0485 97.2137 39.033C97.2984 40.2187 97.256 41.4256 97.256 42.6113C97.256 44.5169 97.3089 46.4225 97.2348 48.3281C97.1607 50.1596 96.9278 51.9911 96.8008 53.8226C96.7373 54.733 97.0655 55.1141 97.9653 55.0506C98.7381 54.9977 99.5427 54.8707 100.252 54.5848C102.539 53.6638 104.667 52.4145 106.54 50.816C108.361 49.2703 110.023 47.5447 111.717 45.8614C112.755 44.8345 112.734 44.8028 114.036 45.3003C114.586 45.0992 114.703 44.6863 114.735 44.1358C114.809 43.0877 114.735 41.9232 115.169 41.0445C116.016 39.3612 116.799 37.6674 117.381 35.8888C117.805 34.6078 118.038 33.2633 118.345 31.9506C118.419 31.6436 118.44 31.3154 118.546 31.0084C118.959 29.8332 118.694 28.9016 117.646 28.1711C116.852 27.6101 116.005 27.1125 115.169 26.6149C113.062 25.3763 111.22 23.1213 111.855 20.2206C111.961 19.7124 112.077 19.2043 112.257 18.7173C112.469 18.1032 112.649 17.4363 113.02 16.9281C114.099 15.446 114.385 15.4883 115.243 17.0763C115.285 17.1504 115.349 17.2246 115.359 17.3093C115.719 19.0349 116.27 20.7393 116.259 22.5285C116.259 23.1213 116.259 23.7036 116.259 24.2858C116.259 25.4292 116.439 25.6092 117.582 25.5457Z" fill="black"></path><path d="M91.761 33.327C91.3587 33.0411 90.8188 32.8294 90.3318 32.7871C88.6486 32.6388 87.3041 33.6763 86.69 35.2643C86.2454 36.4077 86.383 37.5616 86.2772 38.7156C86.1819 39.7425 86.6371 40.4518 87.4735 40.9388C88.945 41.7857 89.3579 43.1937 89.5061 44.7288C89.6014 45.7133 89.4849 46.6873 89.1461 47.6401C88.7439 48.8046 88.3733 49.0164 87.1664 48.6035C86.9971 48.5506 86.8171 48.54 86.6477 48.4976C85.5573 48.2118 84.4457 48.0107 83.387 47.6295C80.6768 46.6344 77.9667 45.6604 75.0765 45.2475C74.3037 45.1417 73.5203 45.0464 72.7792 44.8347C70.7889 44.2736 68.7669 43.903 66.7236 44.1148C65.3474 44.2524 63.8758 44.2842 62.6584 45.2052C61.8644 45.8086 60.9963 46.3168 59.8635 47.0684C59.673 46.7614 59.5459 46.3591 59.2601 46.1262C58.6884 45.6604 58.0638 45.2264 57.3968 44.8982C56.0947 44.263 54.729 43.8607 53.2892 43.5748C51.5742 43.2361 49.8803 42.7914 48.1123 42.8444C44.9893 42.9396 41.9086 43.2784 38.9337 44.3583C38.235 44.6123 37.3987 44.7288 36.6047 44.3583C36.467 43.6807 36.2553 43.0349 36.213 42.368C36.0542 40.2401 35.9271 38.1121 35.8424 35.9736C35.7683 34.1845 35.7683 32.3954 35.7789 30.6062C35.7789 30.3204 35.9377 29.8546 36.1283 29.791C36.8693 29.537 37.5257 28.87 38.4997 29.2511C38.6267 29.5264 38.849 29.8546 38.9337 30.2039C39.2407 31.5908 39.5054 32.9882 39.7807 34.3751C39.8759 34.8515 40.13 34.9256 40.6276 34.7244C40.8923 32.6071 41.1675 30.4686 41.411 28.3301C41.5063 27.5149 41.104 27.102 40.2888 27.1656C39.6219 27.2185 38.9655 27.3667 38.3091 27.4832C37.4198 27.642 36.52 27.7266 35.6625 27.9913C33.7886 28.5842 31.936 29.2405 30.0939 29.9393C28.8341 30.4157 27.6272 31.0191 26.3145 31.5908C26.4415 32.7341 26.5579 33.7399 26.6638 34.7562C26.6956 35.1267 26.6956 35.5078 26.6638 35.8784C26.6003 36.9582 26.5156 38.038 26.4627 39.1179C26.4415 39.6366 26.7167 39.7742 27.1931 39.5943C27.659 37.7945 28.2306 36.0477 28.1142 34.1739C28.093 33.814 28.2942 33.4434 28.4 33.0835C28.5906 32.4906 28.9823 32.3424 29.4693 32.5118C29.6492 34.2057 29.8504 35.836 29.988 37.4558C30.1574 39.5519 30.2421 41.6587 30.4327 43.7654C30.5173 44.7076 30.3056 45.4275 29.5751 46.0945C28.887 46.7191 28.3047 47.4813 27.7648 48.2541C27.5002 48.6458 27.1931 49.1858 27.7754 49.6833C28.2412 49.5034 28.6964 49.334 29.1411 49.1434C30.2103 48.7094 31.2584 48.2012 32.3594 47.8413C33.5345 47.4601 34.752 47.2167 35.9589 46.9202C36.6047 46.7614 37.261 46.6238 37.9068 46.465C38.8279 46.2427 39.7383 45.9251 40.6805 45.7875C42.0885 45.5651 43.5177 45.4699 44.9363 45.3111C45.0846 45.2899 45.2222 45.2369 45.3704 45.2158C45.9738 45.1417 46.5879 44.9405 47.1595 45.0358C49.0122 45.3534 50.8755 45.7133 52.6964 46.1792C55.1419 46.8038 57.2592 48.053 59.0378 49.8633C60.0435 50.8796 60.2552 50.922 61.2927 49.9692C62.6901 48.6882 64.3099 47.7672 66.1626 47.4813C67.8035 47.2272 69.4973 47.2272 71.1595 47.2802C72.6945 47.3225 74.2296 47.566 75.7646 47.7672C76.7386 47.8942 77.6914 48.1165 78.6442 48.3388C79.9675 48.6564 81.2909 49.0058 82.6036 49.3763C83.7681 49.7045 84.9221 50.0539 86.0654 50.4562C86.9653 50.7738 87.8122 51.229 88.7015 51.5466C89.7813 51.9277 90.9353 52.0865 91.9093 52.764C92.9044 53.4522 93.5819 53.2828 94.016 52.1712C94.2807 51.5148 94.2807 50.7526 94.5242 50.0856C95.1805 48.3388 94.8735 46.592 94.3654 44.9299C93.6772 42.6326 92.555 40.5471 90.6071 38.9908C90.1307 38.6097 89.7072 38.1545 89.3473 37.6675C88.9132 37.0852 89.2308 36.1748 89.8978 36.0477C91.6234 35.7196 93.4867 36.6194 93.9207 38.3874C94.2701 39.8166 94.5242 41.2775 94.8206 42.7597C95.0217 42.8867 95.2335 43.0243 95.5511 43.2149C96.1122 40.8964 96.2604 38.6415 96.3557 36.6512C95.604 36.196 95.0641 35.9313 94.5877 35.5713C93.6137 34.8409 92.7138 34.0151 91.7187 33.3164" fill="black"></path><path d="M73.6374 10.7875C73.2139 12.1002 72.5364 12.3014 71.2025 11.7932C70.9272 11.6873 70.5673 11.7826 70.2497 11.7826C70.2073 11.8779 70.1756 11.9732 70.1332 12.0685C70.9272 12.6931 71.7212 13.3071 72.4517 13.8788C72.0706 15.2444 71.7742 16.536 71.3189 17.7852C71.1072 18.3781 70.7049 18.9709 70.2285 19.3626C69.7309 19.7649 69.6039 20.0614 69.9109 20.6013C71.6154 20.9401 73.1504 21.8505 74.8443 21.9246C75.3842 21.1306 74.9184 20.7177 74.5373 20.2731C73.5104 19.098 73.8174 17.7217 75.1619 16.9701C76.3688 16.3031 77.618 15.8479 78.9942 15.6891C80.307 15.5409 81.5033 15.7949 82.689 16.3984C82.0855 18.0922 81.5033 19.7014 80.9528 21.2471C80.5293 21.5011 80.1588 21.7129 79.7988 21.9352C79.7459 22.0411 79.693 22.1469 79.6294 22.2528C79.8835 22.401 80.1376 22.5281 80.3811 22.6869C81.7044 23.4914 82.9854 24.3701 84.1817 25.3759C84.8592 25.9475 85.6215 26.6357 86.6696 26.2757C87.2624 25.8311 86.8601 25.3441 86.8072 24.8465C86.5319 22.2951 86.913 19.9026 88.6281 17.997C89.2421 17.7747 89.7926 17.6582 90.269 17.4041C91.2112 16.9065 92.1958 16.4407 92.7357 15.4244C93.1274 14.6728 93.1168 14.1858 92.6192 13.7941C91.7088 14.3763 91.1265 15.6467 89.6656 15.2444C89.5703 14.2705 90.1208 13.5294 90.5549 12.8413C91.3489 11.5815 92.5663 10.7875 94.0273 10.4593C94.1331 9.9723 93.9532 9.69704 93.5085 9.72881C92.3546 9.79232 91.4335 9.12537 90.5125 8.64897C89.1468 7.93966 87.9294 6.94452 86.6272 6.087C86.3414 5.89644 86.0132 5.77999 85.685 5.62119C85.4627 7.09273 85.3992 8.44782 85.018 9.70763C84.6369 10.9569 83.9382 12.1002 83.3559 13.36C80.4446 13.0424 77.6709 13.1695 75.2042 14.9374C75.3842 13.9317 75.5218 13.0107 75.8712 12.1849C76.6334 10.3958 77.2474 8.51134 78.6872 7.09273C78.8884 6.89159 78.9519 6.5634 79.0895 6.28815C79.0366 6.21404 78.9837 6.13993 78.9413 6.05524C76.8769 6.18228 74.9078 5.83292 73.161 4.76367C72.7058 5.46239 73.1398 5.79058 73.4786 6.06583C74.0715 6.5634 74.3361 7.16684 74.2197 7.9079C74.0609 8.87129 73.9656 9.86643 73.6586 10.7981" fill="black"></path><path d="M34.2865 5.25117C34.0748 5.29352 33.9054 5.57936 33.7148 5.74874C33.7572 5.82285 33.7995 5.89696 33.8419 5.97106C34.096 6.00282 34.35 6.05576 34.6041 6.07693C35.4616 6.16162 36.0121 6.71213 36.1498 7.55906C36.2662 8.30012 36.3933 9.05177 36.605 9.77167C37.0073 11.095 37.3672 12.3972 36.5097 13.6993C36.4568 13.784 36.5097 13.9216 36.5097 14.0063C36.9332 14.271 37.3249 14.5145 37.6848 14.7368C37.8542 15.986 38.0024 17.1717 38.1824 18.3468C38.2142 18.6009 38.4047 18.8444 38.4153 19.0985C38.4471 19.6067 38.5635 20.2101 38.3412 20.6018C37.9495 21.2899 38.2142 21.5546 38.68 21.7557C40.4691 21.5017 42.163 21.2582 43.8568 21.0253C43.8886 20.9406 43.9204 20.8559 43.9521 20.7712C43.751 20.5806 43.5287 20.4007 43.3381 20.1995C43.0946 19.9348 42.7135 19.6702 42.6711 19.3632C42.2583 16.346 41.9089 13.3288 41.549 10.3116C41.6336 10.2692 41.7183 10.2269 41.8136 10.174C44.058 13.2123 46.3024 16.2401 48.5785 19.3102C48.2397 19.9454 48.3138 20.263 48.949 20.2736C50.8017 20.3054 52.6438 20.2736 54.4964 20.2524C54.5705 20.2524 54.6446 20.1677 54.8352 20.0619C54.6976 19.829 54.5705 19.6067 54.4329 19.3843C54.1365 18.8974 53.7236 18.4527 53.5754 17.934C53.2578 16.8118 52.9402 15.6684 52.8872 14.5145C52.7708 12.0266 52.6438 9.51759 52.8872 7.0509C53.046 5.4629 54.1894 4.10781 55.3328 2.96446C55.9256 2.38219 56.7408 1.99049 57.5136 1.63054C58.3394 1.23884 59.2286 0.984756 60.0756 0.677743C60.1179 0.137825 59.8321 -0.0527349 59.4404 0.00019828C58.35 0.127238 57.196 0.137825 56.1797 0.487184C54.9411 0.921236 53.8189 1.6623 52.6543 2.26574C51.3734 2.92211 50.0924 3.58907 48.6738 4.30896C48.7161 4.46776 48.7055 4.82771 48.8855 5.02885C49.6266 5.85461 49.6371 6.82858 49.5525 7.83431C49.3195 10.5657 49.563 13.2653 49.9336 15.9649C49.9547 16.1131 50.0183 16.2401 50.05 16.3883C50.1453 16.7906 50.23 17.2035 50.3253 17.6058C50.2088 17.6481 50.0924 17.7011 49.9759 17.7434C49.4254 16.9918 48.8749 16.2189 48.3138 15.4779C46.1118 12.556 43.9627 9.59169 42.5653 6.17221C42.4488 5.89696 42.4488 5.51584 42.5547 5.24058C42.8829 4.39365 42.6817 3.97019 41.7607 4.02312C40.755 4.07605 39.7492 4.23485 38.7541 4.40424C37.2614 4.64773 35.7792 4.92299 34.3077 5.23" fill="black"></path><path d="M26.5794 17.7854C26.3994 17.7008 26.1771 17.4573 26.1771 17.2773C26.1453 15.6999 26.1559 14.1331 26.1559 12.5556C26.2089 12.5345 26.2724 12.5027 26.3253 12.4815C27.2781 14.5883 28.2203 16.695 29.2049 18.8759C28.305 18.5053 27.4263 18.1772 26.5688 17.7854M30.0306 24.5185C32.3914 24.1692 34.2229 22.9835 36.3826 22.1048C36.1497 21.7872 36.0015 21.5437 35.8321 21.332C35.4404 20.8344 34.9111 20.4003 34.6782 19.8498C34.2547 18.8441 34.1065 17.7113 33.6513 16.7162C33.3231 15.9963 33.5983 15.5623 33.9477 15.0647C34.0747 14.8741 34.3182 14.7683 34.4453 14.5883C34.7311 14.1966 34.9746 13.7837 34.4347 13.3391C34.2124 13.3179 33.9477 13.3073 33.6936 13.2755C32.6138 13.1273 31.9256 12.3968 31.7668 11.3276C31.7139 10.9253 31.5657 10.5442 31.4916 10.1419C31.2799 9.04088 31.0681 7.92928 30.9093 6.81769C30.8458 6.34129 30.8987 5.84372 30.8987 5.17676C27.691 5.68492 24.9173 7.02942 22.1012 8.18336C22.62 9.60197 23.234 10.83 23.4987 12.1322C23.7739 13.4873 23.721 14.9165 23.8269 16.5256C23.7316 16.5997 23.4775 16.9068 23.1811 16.9491C20.8203 17.309 19.6663 18.95 18.7559 20.9085C19.3275 21.3426 19.624 20.8767 19.8992 20.6015C20.9049 19.5852 22.0906 19.2676 23.6575 19.564C23.8057 20.9191 23.9433 22.3165 24.1021 23.8092C23.4669 23.5022 23.0223 23.2905 22.5776 23.0682C22.5141 23.1529 22.4506 23.227 22.3871 23.3117C22.9482 24.5609 23.6469 25.7254 24.5468 26.7735C24.6632 26.9111 25.1184 26.9005 25.3407 26.7947C25.8595 26.5618 26.3465 26.2548 26.8123 25.9372C27.0346 25.7889 27.1828 25.5455 27.4475 25.2702C26.9499 25.0055 26.5794 24.7938 26.1453 24.5609C26.1453 23.407 26.1136 22.2318 26.1559 21.0673C26.1771 20.5062 26.6747 20.2098 27.1405 20.4109C28.2309 20.8873 29.2155 21.5014 30.02 22.4118C30.4117 22.8459 30.6235 23.2482 30.2106 23.7987C30.0941 23.9469 30.1153 24.1904 30.0412 24.5609" fill="black"></path><path d="M95.9319 25.4499C95.9637 25.3335 95.9954 25.2276 96.006 25.1112C96.3024 21.6388 98.1551 18.9497 100.452 16.5148C101.236 15.6891 102.115 14.9374 102.898 14.1963C103.882 14.6939 103.671 15.0856 103.247 15.6573C101.966 17.4041 100.834 19.225 99.9019 21.2047C98.9068 23.3114 97.7211 25.3229 96.6518 27.3979C96.4718 27.7367 96.493 28.1813 96.4189 28.5836C96.5353 28.6259 96.6624 28.6789 96.7788 28.7212C97.0541 28.2342 97.3399 27.7684 97.594 27.2708C98.875 24.7724 100.283 22.3692 102.21 20.2943C102.803 19.6591 103.311 18.9603 103.861 18.2828C103.957 18.304 104.041 18.3251 104.137 18.3357C104.084 19.0556 104.115 19.7967 103.967 20.4848C103.83 21.1518 103.512 21.7764 103.247 22.4116C102.591 23.9678 101.966 25.5346 100.939 26.9215C100.008 28.1707 98.6844 28.9012 97.4987 29.8222C97.0117 30.2033 96.2919 29.8752 96.0589 29.3035C95.5402 28.0331 95.6143 26.7521 95.9213 25.4499M91.9619 18.4945C91.5596 18.6216 91.2103 18.9074 90.7656 19.1615C91.2314 19.6908 91.5808 20.0719 92.0148 20.5589C91.9513 21.4164 91.8243 22.3798 91.8349 23.3432C91.8455 25.5135 92.6395 27.472 93.6028 29.367C94.905 31.9078 98.5468 32.9347 100.728 30.4151C101.977 28.9753 103.29 27.599 104.01 25.7993C104.285 25.1112 104.444 24.3701 104.655 23.6502C105.026 22.4116 105.587 21.1941 105.714 19.9343C105.957 17.5841 105.83 15.2232 104.454 13.1377C103.935 12.3437 103.47 11.3485 102.252 11.6979C101.035 12.0473 99.7219 12.3119 98.6738 12.9683C97.1494 13.9317 95.826 15.2021 94.4286 16.356C93.5923 17.0442 93.0947 18.1134 91.9619 18.4839" fill="black"></path><path d="M48.5042 26.89C49.4464 27.7051 50.0075 32.755 49.3193 34.3218C48.4724 33.8983 47.6361 33.4749 46.8103 33.0726C46.5668 31.4951 47.6361 27.6416 48.5042 26.9005M40.9559 41.4995C41.2206 41.6054 41.3264 41.6795 41.4217 41.6795C42.9462 41.6795 44.4707 41.6689 45.9951 41.616C46.228 41.616 46.461 41.3831 46.6409 41.2878C45.5082 39.2657 46.3763 37.3072 46.228 35.3063C47.3714 35.2852 47.9854 35.9098 48.5783 36.5026C49.2135 37.1272 49.6475 37.8683 50.0604 38.6835C50.5686 39.668 49.5099 40.3456 49.9969 41.2666C50.3251 41.3725 50.738 41.6054 51.1508 41.6266C52.8023 41.6795 54.221 42.357 55.6078 43.1722C55.8619 43.3204 56.2007 43.3204 56.5077 43.3839C56.55 43.3098 56.5924 43.2463 56.6347 43.1722C56.4442 42.7064 56.1901 42.2512 56.0736 41.7642C55.6502 39.9645 55.142 38.1647 54.8985 36.3332C54.6233 34.2794 54.5703 32.1939 54.4433 30.1295C54.3692 28.9226 54.6127 27.811 55.6502 26.8264C55.3008 26.6147 55.0573 26.3712 54.7609 26.2971C53.9245 26.096 53.067 26.0007 52.2307 25.8101C49.5311 25.1855 46.9056 25.2702 44.3013 26.4665C44.4071 27.4511 44.6083 28.4568 44.5871 29.4625C44.5659 30.5 44.3119 31.5269 44.1531 32.6173C43.3908 33.2208 42.5757 33.8771 41.7605 34.5229C41.7922 34.6182 41.824 34.7241 41.8452 34.8194C42.1945 34.8405 42.5333 34.8935 42.8827 34.8935C43.3485 34.8935 43.7508 35.0417 43.7825 35.5287C43.8884 37.2013 43.8249 38.8423 42.4063 40.0809C41.9193 40.5044 41.4852 40.9808 40.9453 41.4995" fill="black"></path><path d="M56.3708 9.10567C56.3285 9.99494 56.0956 10.7995 55.2592 11.35C54.5817 11.8053 54.6134 12.3664 55.3333 12.7686C56.1062 13.1921 56.265 13.8908 56.3708 14.6531C56.4979 15.5953 56.5931 16.5481 56.7519 17.4903C56.9425 18.5595 58.4987 20.1581 59.5892 20.2746C61.3571 20.4651 63.1463 20.6663 64.9248 20.6239C66.2482 20.5922 67.6138 20.3275 68.4396 19.0465C68.7784 18.5172 69.1171 17.9773 69.403 17.4056C70.0276 16.167 69.7312 15.0871 68.5878 14.3037C67.9526 13.8697 67.3597 14.1237 67.2962 14.8966C67.2645 15.2883 67.328 15.6906 67.3386 16.0082C67.8044 16.2622 68.1432 16.4422 68.5243 16.6434C68.3761 16.8974 68.2702 17.0351 68.1961 17.1833C67.3492 18.9089 65.7718 19.8088 63.9403 19.3324C63.2521 19.1524 62.4899 18.496 62.1511 17.8502C61.3889 16.3999 61.2936 14.7589 61.2618 13.1074C61.2301 10.8313 61.897 8.841 63.178 7.03068C63.972 5.9085 65.0307 5.22037 66.4811 5.26272C67.8785 5.29447 68.2808 5.66501 68.1114 7.07303C67.9844 8.13169 67.7303 9.17977 67.4974 10.2278C67.3915 10.7148 67.3386 11.1489 68.0691 11.4771C68.2914 11.0113 68.4713 10.5454 68.7254 10.1326C69.403 9.05273 70.144 8.02583 70.7898 6.9354C71.2345 6.18375 71.5626 5.358 71.9332 4.564C71.8273 4.46872 71.7214 4.36285 71.605 4.26757C71.2874 4.45813 70.8957 4.59576 70.6628 4.86042C70.2922 5.2733 70.0593 5.32624 69.5829 4.96629C68.0267 3.80176 66.1952 3.33595 64.3002 3.21949C62.8393 3.1348 61.4206 3.44181 60.0444 3.99232C57.9059 4.84984 56.4661 6.81895 56.3496 9.08449" fill="black"></path><path d="M76.5481 38.9051C76.7916 38.1323 76.8445 37.3171 77.0457 36.5337C77.5644 34.5011 78.549 32.7014 80.1052 31.2722C80.391 31.0075 80.8251 30.9016 81.185 30.7217C81.2591 30.7958 81.3333 30.8699 81.3968 30.944C81.3968 32.7543 81.5662 34.5858 81.3544 36.3643C81.1003 38.4287 80.2534 40.3449 78.9407 42.007C78.7501 42.2505 78.496 42.4728 78.2525 42.6634C77.6279 43.1398 76.9821 42.9175 76.654 42.2188C76.1458 41.1177 76.1881 40.0379 76.5375 38.9051M74.6213 43.6797C75.7435 44.0608 76.8975 44.3361 78.0196 44.696C79.5124 45.1724 81.1956 44.7172 82.2119 43.5527C83.1118 42.5258 83.5988 41.3189 84.0752 40.0591C84.6469 38.524 85.0703 36.9572 85.0915 35.3374C85.1021 34.1306 84.8904 32.9131 84.6892 31.7168C84.5092 30.6581 83.927 29.8853 82.8789 29.4619C81.7038 28.9855 80.5075 28.689 79.2159 28.5938C78.5807 28.7314 77.8714 28.742 77.3209 29.0278C75.9447 29.7371 75.3412 31.1557 74.579 32.3944C73.9014 33.506 73.4674 34.7128 73.2451 36.015C73.0863 37.0101 72.6205 37.9735 72.631 38.9581C72.631 40.0908 73.0545 41.2024 73.2133 42.3458C73.3298 43.2245 73.9967 43.468 74.6319 43.6903" fill="black"></path><path d="M66.6082 25.6832C65.0096 25.2809 63.2946 25.0056 61.8442 25.969C60.5315 26.8371 59.5046 28.1075 58.8059 29.5579C58.3718 30.4578 58.0436 31.4106 57.6202 32.321C57.419 32.7551 57.112 33.1362 56.8262 33.5808C57.2285 34.2584 57.6943 34.8724 57.9695 35.5499C58.827 37.6567 59.5893 39.8058 60.468 41.9019C60.7221 42.5054 60.955 43.2676 61.8125 43.3523C64.0357 43.5852 66.1848 43.2041 68.1962 42.3148C70.1018 41.4784 71.097 39.16 70.6311 37.1062C70.5994 36.9897 70.4829 36.8944 70.303 36.6615C70.0701 37.2014 69.8901 37.6143 69.7207 38.0272C69.509 38.5354 69.4349 39.2129 69.0643 39.5199C67.9951 40.4092 66.7353 41.0232 65.3167 41.2032C64.5438 41.2985 63.9616 40.9385 63.7498 40.2398C63.3264 38.8318 62.7547 37.4343 62.9453 35.9099C63.0617 34.9571 63.1252 34.0043 63.3052 33.0621C63.5593 31.8234 63.8239 30.5742 64.2368 29.3779C64.7238 27.9699 66.8623 27.25 68.1009 28.0969C69.4984 29.0603 70.61 30.2778 70.4829 32.1728C70.4618 32.4904 70.557 32.808 70.5994 33.1362C70.6947 33.1362 70.7899 33.1468 70.8852 33.1573C71.711 31.5482 72.1662 29.8014 72.7061 27.9805C72.0286 27.8958 71.4675 27.9805 71.1287 27.7476C69.7419 26.7736 68.228 26.0749 66.6188 25.6726" fill="black"></path><path d="M106.392 8.93452C106.794 9.62265 107.175 10.3637 107.313 11.126C107.472 11.9729 107.355 12.8727 107.366 13.7514C107.366 14.0267 107.408 14.2914 107.419 14.5666C107.493 14.5984 107.577 14.6301 107.652 14.6619C107.842 14.4502 108.107 14.2596 108.191 14.0055C108.562 12.9786 109.028 12.0258 109.197 10.9036C109.42 9.41092 109.642 7.96055 109.038 6.53135C108.52 5.3033 107.44 4.72103 106.212 4.46695C105.291 4.27639 105.111 5.21861 104.74 5.73735C104.274 6.38314 103.999 7.16655 103.544 8.077C104.306 8.25697 104.867 8.36284 105.407 8.51105C105.757 8.60633 106.244 8.68044 106.381 8.92393" fill="black"></path></g></svg> 